<?xml version="1.0" encoding="UTF-8" standalone="no"?>
<!-- Created with Inkscape (http://www.inkscape.org/) -->

<svg
   width="3999.9998"
   height="3999.9998"
   viewBox="0 0 1058.3332 1058.3332"
   version="1.1"
   id="svg1"
   xml:space="preserve"
   xmlns="http://www.w3.org/2000/svg"
   xmlns:svg="http://www.w3.org/2000/svg"
   xmlns:rdf="http://www.w3.org/1999/02/22-rdf-syntax-ns#"
   xmlns:cc="http://creativecommons.org/ns#"
   xmlns:dc="http://purl.org/dc/elements/1.1/"><defs
     id="defs1" /><metadata
     id="metadata1"><rdf:RDF><cc:Work
         rdf:about=""><dc:format>image/svg+xml</dc:format><dc:type
           rdf:resource="http://purl.org/dc/dcmitype/StillImage" /></cc:Work></rdf:RDF></metadata><g
     id="layer8"
     style="display:none"
     transform="matrix(0.26458333,0,0,0.26458333,446.88125,418.04167)"><circle
       style="display:inline;opacity:1;fill:none;fill-opacity:1;fill-rule:nonzero;stroke:#6cccfe;stroke-width:25.3361;stroke-linecap:square;stroke-linejoin:miter;stroke-miterlimit:12;stroke-dasharray:none;stroke-opacity:1;paint-order:normal"
       id="path337"
       cx="311"
       cy="420"
       r="1987.332" /></g><g
     id="g134"
     transform="matrix(1.5884366,1.5884366,-1.5884366,1.5884366,377.63018,-1388.0664)"><g
       id="g130"
       style="display:inline;stroke-width:31.2522;stroke-dasharray:none"><path
         style="display:inline;fill:none;fill-opacity:1;stroke:#ffffff;stroke-width:31.2522;stroke-linecap:square;stroke-miterlimit:12;stroke-dasharray:none;stroke-opacity:1;paint-order:markers fill stroke"
         d="M 733.53834,449.80571 H 620.69215"
         id="path128" /><path
         style="fill:none;fill-opacity:1;stroke:#ffffff;stroke-width:31.2522;stroke-linecap:square;stroke-miterlimit:12;stroke-dasharray:none;stroke-opacity:1;paint-order:markers fill stroke"
         d="m 733.53834,525.29242 v 38.06502 H 620.69215"
         id="path129" /><path
         style="fill:none;fill-opacity:1;stroke:#ffffff;stroke-width:31.2522;stroke-linecap:square;stroke-miterlimit:12;stroke-dasharray:none;stroke-opacity:1;paint-order:markers fill stroke"
         d="M 733.53834,336.25398 H 568.85517"
         id="path130" /></g><g
       id="g133"
       transform="matrix(0,1,1,0,95.399741,-95.399712)"
       style="stroke-width:31.2522;stroke-dasharray:none"><path
         style="display:inline;fill:none;fill-opacity:1;stroke:#ffffff;stroke-width:31.2522;stroke-linecap:square;stroke-miterlimit:12;stroke-dasharray:none;stroke-opacity:1;paint-order:markers fill stroke"
         d="m 733.53834,525.29242 v 38.06502"
         id="path132" /><path
         style="display:inline;fill:none;fill-opacity:1;stroke:#ffffff;stroke-width:31.2522;stroke-linecap:square;stroke-miterlimit:12;stroke-dasharray:none;stroke-opacity:1;paint-order:markers fill stroke"
         d="m 545.20547,638.13864 v -74.7812"
         id="path135"
         transform="matrix(0,1,1,0,95.399717,-95.399736)" /><path
         style="display:none;fill:none;fill-opacity:1;stroke:#ffffff;stroke-width:31.2522;stroke-linecap:square;stroke-miterlimit:12;stroke-dasharray:none;stroke-opacity:1;paint-order:markers fill stroke"
         d="M 733.53834,449.80571 H 620.69215"
         id="path131" /><path
         style="display:inline;fill:none;fill-opacity:1;stroke:#ffffff;stroke-width:31.2522;stroke-linecap:square;stroke-miterlimit:12;stroke-dasharray:none;stroke-opacity:1;paint-order:markers fill stroke"
         d="M 733.53834,336.25398 H 568.85517"
         id="path133" /></g></g><path
     d="m 37.393092,984.34943 v 19.55657 h 26.265104 v -10.08325 q 0,-1.21974 0.447239,-1.74829 0.487897,-0.52856 1.2604,-0.52856 0.772503,0 1.219741,0.52856 0.487897,0.52855 0.487897,1.74829 v 13.49845 H 29.383455 q -1.219742,0 -1.748297,-0.4879 -0.528555,-0.4879 -0.528555,-1.2197 0,-0.7725 0.528555,-1.2198 0.528555,-0.4878 1.748297,-0.4878 h 4.59436 v -40.73942 h -4.59436 q -1.219742,0 -1.748297,-0.44724 -0.528555,-0.4879 -0.528555,-1.2604 0,-0.7725 0.528555,-1.21974 0.528555,-0.4879 1.748297,-0.4879 h 35.901064 v 11.75018 q 0,1.21974 -0.487897,1.7483 -0.447239,0.52855 -1.219742,0.52855 -0.772503,0 -1.2604,-0.52855 -0.447238,-0.52856 -0.447238,-1.7483 v -8.3349 h -24.47615 v 17.76757 h 12.238075 v -3.86252 q 0,-1.21974 0.487896,-1.74829 0.487897,-0.52856 1.2604,-0.52856 0.731845,0 1.219742,0.52856 0.487897,0.52855 0.487897,1.74829 v 11.14031 q 0,1.21974 -0.487897,1.7483 -0.487897,0.52855 -1.219742,0.52855 -0.772503,0 -1.2604,-0.52855 -0.487896,-0.52856 -0.487896,-1.7483 v -3.86251 z m 108.152818,22.97177 h -4.39107 L 115.9875,964.75224 v 39.15376 h 6.302 q 1.2604,0 1.78895,0.4878 0.52856,0.4473 0.52856,1.2198 0,0.7318 -0.52856,1.2197 -0.52855,0.4879 -1.78895,0.4879 h -12.56334 q -1.2604,0 -1.78895,-0.4879 -0.52856,-0.4879 -0.52856,-1.2197 0,-0.7725 0.52856,-1.2198 0.52855,-0.4878 1.78895,-0.4878 h 2.84606 v -40.73942 h -4.59436 q -1.21974,0 -1.74829,-0.44724 -0.52856,-0.4879 -0.52856,-1.2604 0,-0.7725 0.52856,-1.21974 0.52855,-0.4879 1.74829,-0.4879 h 8.94478 l 25.20799,42.6503 v -39.23502 h -6.302 q -1.21974,0 -1.74829,-0.44724 -0.52856,-0.4879 -0.52856,-1.2604 0,-0.7725 0.4879,-1.21974 0.52855,-0.4879 1.78895,-0.4879 h 12.604 q 1.21974,0 1.7483,0.4879 0.52855,0.44724 0.52855,1.21974 0,0.7725 -0.52855,1.2604 -0.52856,0.44724 -1.7483,0.44724 h -2.88672 z m 65.25857,-44.15462 v 40.73942 h 8.86345 q 1.21974,0 1.7483,0.4878 0.52855,0.4473 0.52855,1.2198 0,0.7318 -0.52855,1.2197 -0.52856,0.4879 -1.7483,0.4879 h -21.18285 q -1.21974,0 -1.74829,-0.4879 -0.52856,-0.4879 -0.52856,-1.2197 0,-0.7725 0.52856,-1.2198 0.52855,-0.4878 1.74829,-0.4878 h 8.86346 v -40.73942 h -13.98637 v 11.83149 q 0,1.2604 -0.4879,1.78896 -0.44724,0.52855 -1.21974,0.52855 -0.73184,0 -1.21974,-0.52855 -0.4879,-0.52856 -0.4879,-1.78896 V 959.7513 h 38.25923 v 15.24677 q 0,1.2604 -0.48789,1.78896 -0.44724,0.52855 -1.21975,0.52855 -0.7725,0 -1.26039,-0.52855 -0.44724,-0.52856 -0.44724,-1.78896 v -11.83149 z m 67.49475,21.18285 v 19.55657 h 26.26511 v -10.08325 q 0,-1.21974 0.44724,-1.74829 0.48789,-0.52856 1.2604,-0.52856 0.7725,0 1.21974,0.52856 0.4879,0.52855 0.4879,1.74829 v 13.49845 H 270.2896 q -1.21974,0 -1.7483,-0.4879 -0.52855,-0.4879 -0.52855,-1.2197 0,-0.7725 0.52855,-1.2198 0.52856,-0.4878 1.7483,-0.4878 h 4.59436 v -40.73942 h -4.59436 q -1.21974,0 -1.7483,-0.44724 -0.52855,-0.4879 -0.52855,-1.2604 0,-0.7725 0.52855,-1.21974 0.52856,-0.4879 1.7483,-0.4879 h 35.90106 v 11.75018 q 0,1.21974 -0.48789,1.7483 -0.44724,0.52855 -1.21975,0.52855 -0.7725,0 -1.2604,-0.52855 -0.44723,-0.52856 -0.44723,-1.7483 v -8.3349 h -24.47616 v 17.76757 h 12.23808 v -3.86252 q 0,-1.21974 0.4879,-1.74829 0.48789,-0.52856 1.2604,-0.52856 0.73184,0 1.21974,0.52856 0.48789,0.52855 0.48789,1.74829 v 11.14031 q 0,1.21974 -0.48789,1.7483 -0.4879,0.52855 -1.21974,0.52855 -0.77251,0 -1.2604,-0.52855 -0.4879,-0.52856 -0.4879,-1.7483 v -3.86251 z m 80.30205,1.74829 v 17.80828 h 6.302 q 1.2604,0 1.78896,0.4878 0.52855,0.4473 0.52855,1.2198 0,0.7318 -0.52855,1.2197 -0.52856,0.4879 -1.78896,0.4879 h -14.31163 q -1.21975,0 -1.7483,-0.4879 -0.52856,-0.4879 -0.52856,-1.2197 0,-0.7725 0.52856,-1.2198 0.52855,-0.4878 1.7483,-0.4878 h 4.59436 v -40.73942 h -4.59436 q -1.21975,0 -1.7483,-0.44724 -0.52856,-0.4879 -0.52856,-1.2604 0,-0.7725 0.52856,-1.21974 0.52855,-0.4879 1.7483,-0.4879 h 20.65429 q 6.38331,0 10.73373,4.06581 4.39107,4.02514 4.39107,9.1074 0,3.65923 -2.72409,6.91187 -2.68344,3.21199 -9.02609,5.36687 3.65922,2.52079 6.26134,5.69212 2.60211,3.17133 8.3349,13.01063 h 2.60211 q 1.21975,0 1.7483,0.4878 0.52856,0.4473 0.52856,1.2198 0,0.7318 -0.52856,1.2197 -0.52855,0.4879 -1.7483,0.4879 h -4.5537 q -6.34265,-11.34357 -9.83925,-15.20609 -3.45593,-3.86251 -7.96898,-6.01739 z m 0,-3.41527 h 9.3107 q 4.47238,0 8.09095,-1.62633 3.65923,-1.62632 5.28555,-3.82185 1.66698,-2.19554 1.66698,-4.47239 0,-3.41528 -3.45594,-6.50529 -3.41527,-3.09001 -8.3349,-3.09001 h -12.56334 z m 93.10935,-19.51587 v 40.73942 h 8.86346 q 1.21974,0 1.7483,0.4878 0.52855,0.4473 0.52855,1.2198 0,0.7318 -0.52855,1.2197 -0.52856,0.4879 -1.7483,0.4879 h -21.18285 q -1.21974,0 -1.74829,-0.4879 -0.52856,-0.4879 -0.52856,-1.2197 0,-0.7725 0.52856,-1.2198 0.52855,-0.4878 1.74829,-0.4878 h 8.86346 v -40.73942 h -13.98637 v 11.83149 q 0,1.2604 -0.4879,1.78896 -0.44724,0.52855 -1.21974,0.52855 -0.73185,0 -1.21974,-0.52855 -0.4879,-0.52856 -0.4879,-1.78896 V 959.7513 h 38.25923 v 15.24677 q 0,1.2604 -0.48789,1.78896 -0.44724,0.52855 -1.21975,0.52855 -0.7725,0 -1.2604,-0.52855 -0.44723,-0.52856 -0.44723,-1.78896 v -11.83149 z m 89.85668,28.25735 h -22.44325 l -4.59436,12.48207 h 6.54595 q 1.21974,0 1.7483,0.4878 0.52855,0.4473 0.52855,1.2198 0,0.7318 -0.52855,1.2197 -0.52856,0.4879 -1.7483,0.4879 h -12.76663 q -1.21974,0 -1.7483,-0.4879 -0.52855,-0.4879 -0.52855,-1.2197 0,-0.7725 0.52855,-1.2198 0.52856,-0.4878 1.7483,-0.4878 h 2.64277 l 15.08414,-40.73942 h -10.0832 q -1.21974,0 -1.74829,-0.44724 -0.52856,-0.4879 -0.52856,-1.2604 0,-0.7725 0.52856,-1.21974 0.52855,-0.4879 1.74829,-0.4879 h 17.19836 l 16.6698,44.1547 h 2.64278 q 1.21974,0 1.74829,0.4878 0.52856,0.4473 0.52856,1.2198 0,0.7318 -0.52856,1.2197 -0.52855,0.4879 -1.74829,0.4879 H 539.7377 q -1.2604,0 -1.78896,-0.4879 -0.52855,-0.4879 -0.52855,-1.2197 0,-0.7725 0.52855,-1.2198 0.52856,-0.4878 1.78896,-0.4878 h 6.50529 z m -1.30106,-3.41528 -9.43267,-24.84207 h -1.2604 l -9.14806,24.84207 z m 72.08911,-24.84207 v 40.73942 h 11.70952 q 1.21974,0 1.74829,0.4878 0.52856,0.4473 0.52856,1.2198 0,0.7318 -0.52856,1.2197 -0.52855,0.4879 -1.74829,0.4879 h -26.83432 q -1.21974,0 -1.7483,-0.4879 -0.52855,-0.4879 -0.52855,-1.2197 0,-0.7725 0.52855,-1.2198 0.52856,-0.4878 1.7483,-0.4878 h 11.70952 v -40.73942 h -11.70952 q -1.21974,0 -1.7483,-0.44724 -0.52855,-0.4879 -0.52855,-1.2604 0,-0.7725 0.52855,-1.21974 0.52856,-0.4879 1.7483,-0.4879 h 26.83432 q 1.21974,0 1.74829,0.4879 0.52856,0.44724 0.52856,1.21974 0,0.7725 -0.52856,1.2604 -0.52855,0.44724 -1.74829,0.44724 z m 95.30488,44.15462 h -4.39107 l -25.16733,-42.56896 v 39.15376 h 6.30199 q 1.2604,0 1.78896,0.4878 0.52855,0.4473 0.52855,1.2198 0,0.7318 -0.52855,1.2197 -0.52856,0.4879 -1.78896,0.4879 h -12.56334 q -1.2604,0 -1.78895,-0.4879 -0.52855,-0.4879 -0.52855,-1.2197 0,-0.7725 0.52855,-1.2198 0.52855,-0.4878 1.78895,-0.4878 h 2.84607 v -40.73942 h -4.59436 q -1.21974,0 -1.7483,-0.44724 -0.52855,-0.4879 -0.52855,-1.2604 0,-0.7725 0.52855,-1.21974 0.52856,-0.4879 1.7483,-0.4879 h 8.94477 l 25.208,42.6503 v -39.23502 h -6.302 q -1.21974,0 -1.7483,-0.44724 -0.52855,-0.4879 -0.52855,-1.2604 0,-0.7725 0.48789,-1.21974 0.52856,-0.4879 1.78896,-0.4879 h 12.60399 q 1.21975,0 1.7483,0.4879 0.52856,0.44724 0.52856,1.21974 0,0.7725 -0.52856,1.2604 -0.52855,0.44724 -1.7483,0.44724 h -2.88672 z m 65.8278,-14.27095 h -3.90318 l -13.13255,-29.88367 h -0.65053 v 40.73942 h 6.302 q 1.21974,0 1.7483,0.4878 0.52855,0.4473 0.52855,1.2198 0,0.7318 -0.52855,1.2197 -0.52856,0.4879 -1.7483,0.4879 h -12.604 q -1.21974,0 -1.74829,-0.4879 -0.52856,-0.4879 -0.52856,-1.2197 0,-0.7725 0.52856,-1.2198 0.52855,-0.4878 1.74829,-0.4878 h 2.88673 v -40.73942 h -2.15488 q -1.21974,0 -1.7483,-0.44724 -0.52855,-0.4879 -0.52855,-1.2604 0,-0.7725 0.52855,-1.21974 0.52856,-0.4879 1.7483,-0.4879 h 8.37556 l 12.92926,29.43643 12.72597,-29.43643 h 8.37556 q 1.2604,0 1.78896,0.4879 0.52855,0.44724 0.52855,1.21974 0,0.7725 -0.52855,1.2604 -0.52856,0.44724 -1.78896,0.44724 h -2.11422 v 40.73942 h 2.84607 q 1.2604,0 1.78895,0.4878 0.52856,0.4473 0.52856,1.2198 0,0.7318 -0.52856,1.2197 -0.52855,0.4879 -1.78895,0.4879 h -12.56334 q -1.21974,0 -1.78896,-0.4879 -0.52855,-0.4879 -0.52855,-1.2197 0,-0.7725 0.52855,-1.2198 0.52856,-0.4878 1.78896,-0.4878 h 6.302 v -40.73942 h -0.73185 z m 66.92556,-8.70082 v 19.55657 h 26.2651 v -10.08325 q 0,-1.21974 0.44724,-1.74829 0.4879,-0.52856 1.2604,-0.52856 0.77251,0 1.21974,0.52856 0.4879,0.52855 0.4879,1.74829 v 13.49845 h -37.69002 q -1.21974,0 -1.74829,-0.4879 -0.52856,-0.4879 -0.52856,-1.2197 0,-0.7725 0.52856,-1.2198 0.52855,-0.4878 1.74829,-0.4878 h 4.59436 v -40.73942 h -4.59436 q -1.21974,0 -1.74829,-0.44724 -0.52856,-0.4879 -0.52856,-1.2604 0,-0.7725 0.52856,-1.21974 0.52855,-0.4879 1.74829,-0.4879 h 35.90107 v 11.75018 q 0,1.21974 -0.4879,1.7483 -0.44724,0.52855 -1.21974,0.52855 -0.77251,0 -1.2604,-0.52855 -0.44724,-0.52856 -0.44724,-1.7483 v -8.3349 H 840.4136 v 17.76757 h 12.23807 v -3.86252 q 0,-1.21974 0.4879,-1.74829 0.4879,-0.52856 1.2604,-0.52856 0.73185,0 1.21974,0.52856 0.4879,0.52855 0.4879,1.74829 v 11.14031 q 0,1.21974 -0.4879,1.7483 -0.48789,0.52855 -1.21974,0.52855 -0.7725,0 -1.2604,-0.52855 -0.4879,-0.52856 -0.4879,-1.7483 v -3.86251 z m 108.15283,22.97177 h -4.39107 l -25.16734,-42.56896 v 39.15376 h 6.302 q 1.2604,0 1.78896,0.4878 0.52855,0.4473 0.52855,1.2198 0,0.7318 -0.52855,1.2197 -0.52856,0.4879 -1.78896,0.4879 h -12.56334 q -1.2604,0 -1.78895,-0.4879 -0.52856,-0.4879 -0.52856,-1.2197 0,-0.7725 0.52856,-1.2198 0.52855,-0.4878 1.78895,-0.4878 h 2.84607 v -40.73942 h -4.59436 q -1.21974,0 -1.7483,-0.44724 -0.52855,-0.4879 -0.52855,-1.2604 0,-0.7725 0.52855,-1.21974 0.52856,-0.4879 1.7483,-0.4879 h 8.94477 l 25.20799,42.6503 v -39.23502 h -6.30199 q -1.21975,0 -1.7483,-0.44724 -0.52856,-0.4879 -0.52856,-1.2604 0,-0.7725 0.4879,-1.21974 0.52856,-0.4879 1.78896,-0.4879 h 12.60399 q 1.21975,0 1.7483,0.4879 0.52855,0.44724 0.52855,1.21974 0,0.7725 -0.52855,1.2604 -0.52855,0.44724 -1.7483,0.44724 h -2.88672 z m 65.25857,-44.15462 v 40.73942 h 8.8634 q 1.2198,0 1.7483,0.4878 0.5286,0.4473 0.5286,1.2198 0,0.7318 -0.5286,1.2197 -0.5285,0.4879 -1.7483,0.4879 h -21.1828 q -1.2198,0 -1.74834,-0.4879 -0.52855,-0.4879 -0.52855,-1.2197 0,-0.7725 0.52855,-1.2198 0.52854,-0.4878 1.74834,-0.4878 h 8.8634 v -40.73942 h -13.98635 v 11.83149 q 0,1.2604 -0.4879,1.78896 -0.44724,0.52855 -1.21974,0.52855 -0.73185,0 -1.21974,-0.52855 -0.4879,-0.52856 -0.4879,-1.78896 V 959.7513 h 38.25923 v 15.24677 q 0,1.2604 -0.4879,1.78896 -0.4472,0.52855 -1.2197,0.52855 -0.7725,0 -1.2604,-0.52855 -0.4473,-0.52856 -0.4473,-1.78896 v -11.83149 z"
     id="text1"
     style="font-size:83.2677px;line-height:1;font-family:'Courier New';-inkscape-font-specification:'Courier New';text-align:center;letter-spacing:30.3333px;word-spacing:0px;text-anchor:middle;fill:#ffffff;stroke:#ffffff;stroke-width:0;stroke-linecap:square;stroke-miterlimit:12;paint-order:markers fill stroke"
     aria-label="ENTERTAINMENT" /><g
     id="text3"
     style="font-size:152.261px;line-height:1;font-family:'Courier New';-inkscape-font-specification:'Courier New';text-align:center;letter-spacing:5.70979px;word-spacing:0px;text-anchor:middle;fill:#ffffff;stroke:#ffffff;stroke-width:0;stroke-linecap:square;stroke-miterlimit:12;paint-order:markers fill stroke"
     aria-label="FILMENGINE"><path
       style="font-weight:bold;font-family:Futura;-inkscape-font-specification:'Futura Bold'"
       d="M 89.910994,829.44819 H 53.977397 v 19.18489 H 86.713512 V 873.9084 H 53.977397 v 45.06926 H 24.134241 V 804.17287 H 89.910994 Z M 143.27845,804.17287 V 918.97766 H 113.43529 V 804.17287 Z m 59.61019,0 v 89.52946 h 35.78133 v 25.27533 H 173.04548 V 804.17287 Z m 51.69255,114.80479 19.48941,-114.80479 h 29.53863 l 22.99142,61.20892 22.83915,-61.20892 h 29.53863 l 19.48941,114.80479 h -29.6909 l -9.89696,-66.08127 -27.10246,66.08127 h -11.87636 l -25.73211,-66.08127 -9.89696,66.08127 z"
       id="path3" /><path
       style="font-family:Futura;-inkscape-font-specification:'Futura Bold'"
       d="m 488.12636,820.46896 h -46.02029 v 27.58243 h 44.68206 v 16.28182 h -44.68206 v 38.36264 h 46.02029 v 16.28181 H 424.7834 V 804.18714 h 63.34296 z m 28.45972,98.5087 V 796.38079 l 83.71381,87.57981 v -79.77346 h 17.32266 V 925.9662 l -83.71381,-87.35677 v 80.36823 z m 194.47475,-59.77434 h 47.43287 v 3.79166 q 0,12.93624 -3.04819,22.89863 -2.97385,9.21892 -10.03674,17.24831 -15.98443,17.99178 -40.66736,17.99178 -24.08817,0 -41.26214,-17.39701 -17.17397,-17.47135 -17.17397,-41.93125 0,-24.98032 17.47135,-42.37733 17.47136,-17.47136 42.52603,-17.47136 13.45666,0 25.12901,5.50162 11.15193,5.50162 21.93213,17.84309 l -12.34147,11.82104 q -14.12578,-18.80958 -34.42229,-18.80958 -18.21482,0 -30.55628,12.5645 -12.34147,12.34147 -12.34147,30.92802 0,19.18132 13.75404,31.59713 12.86189,11.52366 27.87983,11.52366 12.78754,0 22.97297,-8.62416 10.18543,-8.6985 11.37497,-20.81693 h -28.62329 z m 92.24876,-55.01618 V 918.97766 H 785.98693 V 804.18714 Z m 33.29226,114.79052 V 796.38079 l 83.71382,87.57981 v -79.77346 h 17.32266 V 925.9662 l -83.71381,-87.35677 v 80.36823 z m 197.59725,-98.5087 h -46.02025 v 27.58243 h 44.68205 v 16.28182 h -44.68205 v 38.36264 h 46.02025 v 16.28181 H 970.85619 V 804.18714 h 63.34291 z"
       id="path4" /></g></svg>
